<svg version="1.1" id="Layer_1" xmlns="http://www.w3.org/2000/svg" xmlns:xlink="http://www.w3.org/1999/xlink" x="0px" y="0px"
	 width="100%" viewBox="0 0 150 150" enable-background="new 0 0 150 150" xml:space="preserve">
<path fill="#FBF9F9" opacity="1.000000" stroke="none" 
	d="
M1.000000,63.000000 
	C1.000000,42.017094 1.000000,21.534185 1.000000,1.025640 
	C50.941208,1.025640 100.882431,1.025640 150.911835,1.025640 
	C150.911835,50.899387 150.911835,100.798981 150.911835,150.849289 
	C101.000343,150.849289 51.000229,150.849289 1.000000,150.849289 
	C1.000000,121.784607 1.000000,92.642303 1.000000,63.000000 
M38.827301,132.262238 
	C38.455116,132.717209 38.082935,133.172180 37.674080,133.676315 
	C37.674080,133.676315 37.614071,133.663651 36.993740,133.865707 
	C35.454895,135.617172 33.916050,137.368622 32.014713,139.532654 
	C41.203613,139.532654 49.398521,139.532654 57.644531,139.532654 
	C57.644531,129.678909 57.644531,120.207550 57.644531,109.353958 
	C55.819302,111.820511 54.794750,113.205048 53.195137,114.972923 
	C49.090714,119.884750 44.986294,124.796577 40.288891,130.095047 
	C39.986179,130.904984 39.683464,131.714905 39.582500,132.495544 
	C39.582500,132.495544 39.421406,132.370621 38.827301,132.262238 
M28.468554,35.541054 
	C27.698046,34.851028 26.927538,34.161003 26.129017,32.809883 
	C22.564705,29.135355 19.000395,25.460829 15.320821,21.226414 
	C15.016087,20.775478 14.711352,20.324545 14.176078,19.242353 
	C13.235802,18.339699 12.295526,17.437046 11.307231,15.997080 
	C10.996496,15.687119 10.685761,15.377158 10.375027,15.067198 
	C10.360800,15.761081 10.346573,16.454964 10.309155,18.011868 
	C10.336625,35.635067 10.375069,53.258263 10.388745,70.881470 
	C10.405259,92.163071 10.369411,113.444832 10.462744,134.726059 
	C10.470518,136.498795 9.069111,139.487335 13.574120,139.702652 
	C17.328697,139.125076 21.083275,138.547485 25.227598,137.466400 
	C25.841133,136.375290 26.454668,135.284195 27.770767,134.096909 
	C28.224125,133.412277 28.677483,132.727661 29.386303,131.129410 
	C29.402767,101.060661 29.433207,70.991905 29.396570,40.923218 
	C29.394634,39.333672 28.824980,37.744808 28.468554,35.541054 
M140.303955,19.452045 
	C140.142868,18.187931 139.981781,16.923819 139.747665,15.086476 
	C136.458023,19.018780 133.577835,22.461653 130.170929,26.081390 
	C129.763092,26.684206 129.355255,27.287022 128.308258,28.118252 
	C126.175980,30.873447 124.043701,33.628643 121.135620,36.949902 
	C120.978233,47.554638 120.691544,58.159355 120.690247,68.764107 
	C120.687515,91.185219 120.833893,113.606346 120.684250,136.459030 
	C120.684250,136.459030 120.776512,136.941620 120.497742,137.549484 
	C121.623375,138.302673 122.715111,139.637772 123.880646,139.705643 
	C128.298065,139.962906 132.746338,139.657974 137.169464,139.860672 
	C140.377228,140.007660 140.850525,138.588242 140.175842,135.061234 
	C140.134171,96.710999 140.092499,58.360764 140.303955,19.452045 
M84.081032,139.386185 
	C84.474525,138.036301 85.204414,136.687943 85.210541,135.336304 
	C85.289589,117.882843 85.276382,100.428909 85.240387,82.975182 
	C85.238251,81.941872 84.843521,80.909370 84.361008,78.558960 
	C83.038727,80.635170 82.397453,81.642075 81.109550,82.876068 
	C76.348785,88.552574 71.588020,94.229080 66.633347,100.069656 
	C66.633347,100.069656 66.610069,100.322601 65.908562,100.786301 
	C65.700279,101.223930 65.312164,101.660652 65.309944,102.099312 
	C65.251305,113.678459 65.196373,125.258080 65.281723,136.836578 
	C65.287941,137.680557 66.360489,138.516693 67.364571,139.560501 
	C67.364571,139.560501 67.833549,139.495010 68.610825,139.779449 
	C73.466759,139.696930 78.322693,139.614410 84.081032,139.386185 
M109.217888,55.202442 
	C108.857986,55.990978 108.498077,56.779518 107.477989,57.569061 
	C102.904190,63.010098 98.330391,68.451134 93.185356,74.339973 
	C93.044380,95.083115 92.845955,115.826469 92.923500,136.568802 
	C92.927597,137.664520 95.191139,139.564636 96.535568,139.692291 
	C100.817108,140.098831 105.164688,139.742233 109.480301,139.881195 
	C112.374611,139.974380 113.525101,138.908875 112.992165,135.119064 
	C112.992165,107.655891 112.992165,80.192719 112.992165,51.323978 
	C111.349876,53.156746 110.577072,54.019180 109.217888,55.202442 
M42.301548,113.203949 
	C46.788612,108.117882 51.357578,103.101021 55.734146,97.921585 
	C58.687714,94.426186 58.801483,71.107582 55.831501,67.603828 
	C50.705399,61.556461 45.363232,55.692245 39.628876,49.016029 
	C39.032738,50.314808 37.924641,51.610649 37.917183,52.912796 
	C37.803688,72.723343 37.827923,92.534721 37.844437,112.345886 
	C37.845612,113.754425 38.037224,115.162804 38.140285,116.571259 
	C38.461140,116.706589 38.781990,116.841919 39.102844,116.977249 
	C39.949593,115.713135 40.796341,114.449020 42.301548,113.203949 
M92.094994,15.776696 
	C90.909172,15.168356 89.733650,14.057707 88.535873,14.033170 
	C80.744804,13.873567 72.948914,13.949848 65.154594,13.949062 
	C62.795620,13.948825 60.436646,13.949025 56.694714,13.949025 
	C63.519524,21.796509 69.270973,28.409796 75.271080,35.308994 
	C81.074577,28.662682 86.385605,22.580359 92.094994,15.776696 
M68.072365,77.351341 
	C67.287109,76.692719 66.501854,76.034103 65.479630,75.176720 
	C65.479630,79.355316 65.479630,82.961678 65.479630,86.568047 
	C67.406487,83.839485 73.780525,82.572426 68.072365,77.351341 
z"/>
<path fill="#D5441D" opacity="1.000000" stroke="none" 
	d="
M15.436083,21.786301 
	C19.000395,25.460829 22.564705,29.135355 26.103165,33.582500 
	C26.052074,35.237915 26.026838,36.120716 26.000946,37.471771 
	C26.000549,67.397606 25.982494,96.855217 26.043680,126.312660 
	C26.047617,128.208282 26.663483,130.102615 26.999142,132.363663 
	C27.025131,133.217545 27.046667,133.705307 27.068203,134.193085 
	C26.454668,135.284195 25.841133,136.375290 24.670918,137.634583 
	C22.473557,137.200317 20.784719,135.988144 19.201498,136.113174 
	C14.969113,136.447464 13.895313,134.826019 13.913826,130.723663 
	C14.065646,97.079353 13.966985,63.433979 14.061562,29.789261 
	C14.069064,27.120340 14.957204,24.453896 15.436083,21.786301 
z"/>
<path fill="#023C4D" opacity="1.000000" stroke="none" 
	d="
M128.947418,27.889837 
	C129.355255,27.287022 129.763092,26.684206 130.829193,26.002190 
	C133.325638,24.947393 135.163849,23.971800 137.001740,23.465233 
	C136.997437,60.954037 136.993469,97.973816 136.527161,134.995789 
	C134.736084,134.998856 133.407333,135.000717 132.078598,135.000458 
	C125.002686,134.998993 125.000092,134.998810 124.999840,128.143158 
	C124.998779,99.575363 125.074417,71.007149 124.917549,42.440212 
	C124.894356,38.216450 125.363541,34.537483 129.066193,32.107399 
	C131.580963,30.456936 130.280624,29.253849 128.947418,27.889837 
z"/>
<path fill="#356471" opacity="1.000000" stroke="none" 
	d="
M93.756592,73.892166 
	C98.330391,68.451134 102.904190,63.010098 108.230743,57.830727 
	C109.323959,59.984806 109.954491,61.876240 109.960884,63.769787 
	C110.042068,87.836739 110.033615,111.903984 109.580017,135.979034 
	C106.286346,135.991806 103.442139,135.793442 100.639206,136.048508 
	C96.272415,136.445923 94.837402,134.700226 94.887619,130.336380 
	C95.082680,113.384254 95.004471,96.428368 94.913948,79.474480 
	C94.904007,77.611702 94.160088,75.752846 93.756592,73.892166 
z"/>
<path fill="#DE6D4E" opacity="1.000000" stroke="none" 
	d="
M40.111725,49.751183 
	C45.363232,55.692245 50.705399,61.556461 55.831501,67.603828 
	C58.801483,71.107582 58.687714,94.426186 55.734146,97.921585 
	C51.357578,103.101021 46.788612,108.117882 41.566723,112.970367 
	C40.557487,111.482460 40.045280,110.228325 40.044243,108.973763 
	C40.027912,89.232941 40.077374,69.492050 40.111725,49.751183 
z"/>
<path fill="#6C8E98" opacity="1.000000" stroke="none" 
	d="
M66.827255,99.905586 
	C71.588020,94.229080 76.348785,88.552574 81.632866,83.166626 
	C82.434242,85.397041 82.940895,87.335472 82.952995,89.276985 
	C83.027481,101.220116 82.990257,113.163948 82.990242,125.107544 
	C82.990234,136.787186 82.987320,136.701706 71.512848,137.095337 
	C69.963631,137.148483 68.461311,138.569061 66.937271,139.356461 
	C66.360489,138.516693 65.287941,137.680557 65.281723,136.836578 
	C65.196373,125.258080 65.251305,113.678459 65.309944,102.099312 
	C65.312164,101.660652 65.700279,101.223930 66.375443,101.072380 
	C66.842331,112.510147 66.842331,123.661827 66.842331,134.813507 
	C67.966675,123.871513 67.987579,112.935295 67.917816,101.999649 
	C67.913353,101.299339 67.207062,100.603500 66.827255,99.905586 
z"/>
<path fill="#AD7464" opacity="1.000000" stroke="none" 
	d="
M91.895813,16.137365 
	C86.385605,22.580359 81.074577,28.662682 75.271080,35.308994 
	C69.270973,28.409796 63.519524,21.796509 56.694714,13.949025 
	C60.436646,13.949025 62.795620,13.948825 65.154594,13.949062 
	C72.948914,13.949848 80.744804,13.873567 88.535873,14.033170 
	C89.733650,14.057707 90.909172,15.168356 91.895813,16.137365 
z"/>
<path fill="#0E3E4E" opacity="1.000000" stroke="none" 
	d="
M128.627838,28.004044 
	C130.280624,29.253849 131.580963,30.456936 129.066193,32.107399 
	C125.363541,34.537483 124.894356,38.216450 124.917549,42.440212 
	C125.074417,71.007149 124.998779,99.575363 124.999840,128.143158 
	C125.000092,134.998810 125.002686,134.998993 132.078598,135.000458 
	C133.407333,135.000717 134.736084,134.998856 136.532288,135.327606 
	C137.024261,136.098526 137.048782,136.539795 136.601776,137.007385 
	C131.012329,137.002991 125.894417,136.972305 120.776512,136.941620 
	C120.776512,136.941620 120.684250,136.459030 121.112610,135.957611 
	C121.694695,134.486618 121.982849,133.517044 121.982651,132.547516 
	C121.975960,100.492958 121.941658,68.438400 121.911423,36.383839 
	C124.043701,33.628643 126.175980,30.873447 128.627838,28.004044 
z"/>
<path fill="#3E6C7B" opacity="1.000000" stroke="none" 
	d="
M93.470978,74.116074 
	C94.160088,75.752846 94.904007,77.611702 94.913948,79.474480 
	C95.004471,96.428368 95.082680,113.384254 94.887619,130.336380 
	C94.837402,134.700226 96.272415,136.445923 100.639206,136.048508 
	C103.442139,135.793442 106.286346,135.991806 109.860085,135.986755 
	C110.982613,135.974670 111.357109,135.962738 111.991211,135.982452 
	C112.424942,136.022980 112.599060,136.031891 112.773186,136.040787 
	C113.525101,138.908875 112.374611,139.974380 109.480301,139.881195 
	C105.164688,139.742233 100.817108,140.098831 96.535568,139.692291 
	C95.191139,139.564636 92.927597,137.664520 92.923500,136.568802 
	C92.845955,115.826469 93.044380,95.083115 93.470978,74.116074 
z"/>
<path fill="#D42E12" opacity="1.000000" stroke="none" 
	d="
M12.954416,139.366440 
	C9.069111,139.487335 10.470518,136.498795 10.462744,134.726059 
	C10.369411,113.444832 10.405259,92.163071 10.388745,70.881470 
	C10.375069,53.258263 10.336625,35.635067 10.615780,17.492329 
	C11.066685,16.826656 11.210967,16.680523 11.355250,16.534391 
	C12.295526,17.437046 13.235802,18.339699 13.932751,19.813850 
	C13.460781,22.325932 13.035441,24.266224 13.032582,26.207138 
	C12.977015,63.926861 12.970777,101.646660 12.954416,139.366440 
z"/>
<path fill="#BF735D" opacity="1.000000" stroke="none" 
	d="
M40.881874,129.708405 
	C44.986294,124.796577 49.090714,119.884750 53.713875,115.139435 
	C54.683327,115.787766 55.511017,116.257103 55.527431,116.753288 
	C55.729630,122.864456 55.887318,128.980408 55.817234,135.092361 
	C55.809937,135.729004 54.293045,136.853043 53.439133,136.890182 
	C49.132988,137.077484 44.796555,137.191254 40.513008,136.829926 
	C39.465122,136.741516 38.576122,134.769592 37.614071,133.663651 
	C37.614071,133.663651 37.674080,133.676315 38.047401,133.739243 
	C38.754284,133.324982 39.087845,132.847809 39.421406,132.370621 
	C39.421406,132.370621 39.582500,132.495544 39.879505,132.513687 
	C40.411633,131.590683 40.646755,130.649551 40.881874,129.708405 
z"/>
<path fill="#0C5968" opacity="1.000000" stroke="none" 
	d="
M111.731598,135.950821 
	C111.357109,135.962738 110.982613,135.974670 110.328049,135.978882 
	C110.033615,111.903984 110.042068,87.836739 109.960884,63.769787 
	C109.954491,61.876240 109.323959,59.984806 108.560837,57.830223 
	C108.498077,56.779518 108.857986,55.990978 109.855003,55.116623 
	C110.964066,58.981419 111.830307,62.930775 111.842987,66.882866 
	C111.916855,89.905167 111.790382,112.928101 111.731598,135.950821 
z"/>
<path fill="#D64D2F" opacity="1.000000" stroke="none" 
	d="
M13.264267,139.534546 
	C12.970777,101.646660 12.977015,63.926861 13.032582,26.207138 
	C13.035441,24.266224 13.460781,22.325932 14.048020,20.129478 
	C14.711352,20.324545 15.016087,20.775478 15.378452,21.506357 
	C14.957204,24.453896 14.069064,27.120340 14.061562,29.789261 
	C13.966985,63.433979 14.065646,97.079353 13.913826,130.723663 
	C13.895313,134.826019 14.969113,136.447464 19.201498,136.113174 
	C20.784719,135.988144 22.473557,137.200317 24.476044,137.886337 
	C21.083275,138.547485 17.328697,139.125076 13.264267,139.534546 
z"/>
<path fill="#C27961" opacity="1.000000" stroke="none" 
	d="
M37.303905,133.764679 
	C38.576122,134.769592 39.465122,136.741516 40.513008,136.829926 
	C44.796555,137.191254 49.132988,137.077484 53.439133,136.890182 
	C54.293045,136.853043 55.809937,135.729004 55.817234,135.092361 
	C55.887318,128.980408 55.729630,122.864456 55.527431,116.753288 
	C55.511017,116.257103 54.683327,115.787766 54.001411,114.947769 
	C54.794750,113.205048 55.819302,111.820511 57.644531,109.353958 
	C57.644531,120.207550 57.644531,129.678909 57.644531,139.532654 
	C49.398521,139.532654 41.203613,139.532654 32.014713,139.532654 
	C33.916050,137.368622 35.454895,135.617172 37.303905,133.764679 
z"/>
<path fill="#5D8893" opacity="1.000000" stroke="none" 
	d="
M67.150925,139.458481 
	C68.461311,138.569061 69.963631,137.148483 71.512848,137.095337 
	C82.987320,136.701706 82.990234,136.787186 82.990242,125.107544 
	C82.990257,113.163948 83.027481,101.220116 82.952995,89.276985 
	C82.940895,87.335472 82.434242,85.397041 81.956177,83.053085 
	C82.397453,81.642075 83.038727,80.635170 84.361008,78.558960 
	C84.843521,80.909370 85.238251,81.941872 85.240387,82.975182 
	C85.276382,100.428909 85.289589,117.882843 85.210541,135.336304 
	C85.204414,136.687943 84.474525,138.036301 83.386505,139.072632 
	C77.739166,139.004379 72.786354,139.249695 67.833549,139.495010 
	C67.833549,139.495010 67.364571,139.560501 67.150925,139.458481 
z"/>
<path fill="#DD5F22" opacity="1.000000" stroke="none" 
	d="
M39.870300,49.383606 
	C40.077374,69.492050 40.027912,89.232941 40.044243,108.973763 
	C40.045280,110.228325 40.557487,111.482460 41.237495,112.960846 
	C40.796341,114.449020 39.949593,115.713135 39.102844,116.977249 
	C38.781990,116.841919 38.461140,116.706589 38.140285,116.571259 
	C38.037224,115.162804 37.845612,113.754425 37.844437,112.345886 
	C37.827923,92.534721 37.803688,72.723343 37.917183,52.912796 
	C37.924641,51.610649 39.032738,50.314808 39.870300,49.383606 
z"/>
<path fill="#00012A" opacity="1.000000" stroke="none" 
	d="
M140.050827,20.010530 
	C140.092499,58.360764 140.134171,96.710999 139.830170,135.604645 
	C139.293991,136.174362 139.103500,136.200668 138.929916,135.734253 
	C138.945145,120.425072 138.967789,105.608551 138.936081,90.792145 
	C138.888336,68.488289 138.802551,46.184525 138.773727,23.559277 
	C138.800217,22.806496 138.785904,22.375160 138.830719,21.626102 
	C138.831696,20.884413 138.773544,20.460443 139.048538,19.993530 
	C139.604721,19.970566 139.827774,19.990547 140.050827,20.010530 
z"/>
<path fill="#00223E" opacity="1.000000" stroke="none" 
	d="
M121.523521,36.666870 
	C121.941658,68.438400 121.975960,100.492958 121.982651,132.547516 
	C121.982849,133.517044 121.694695,134.486618 121.230042,135.741821 
	C120.833893,113.606346 120.687515,91.185219 120.690247,68.764107 
	C120.691544,58.159355 120.978233,47.554638 121.523521,36.666870 
z"/>
<path fill="#5B7B85" opacity="1.000000" stroke="none" 
	d="
M111.991211,135.982452 
	C111.790382,112.928101 111.916855,89.905167 111.842987,66.882866 
	C111.830307,62.930775 110.964066,58.981419 110.148193,54.956207 
	C110.577072,54.019180 111.349876,53.156746 112.992165,51.323978 
	C112.992165,80.192719 112.992165,107.655891 112.882675,135.579926 
	C112.599060,136.031891 112.424942,136.022980 111.991211,135.982452 
z"/>
<path fill="#D10000" opacity="1.000000" stroke="none" 
	d="
M28.519621,36.155628 
	C28.824980,37.744808 29.394634,39.333672 29.396570,40.923218 
	C29.433207,70.991905 29.402767,101.060661 28.951492,131.579651 
	C28.312117,132.023010 28.107550,132.016144 27.919262,131.539948 
	C27.971142,99.720032 28.006742,68.369461 28.199675,36.824093 
	C28.411209,36.471405 28.465416,36.313515 28.519621,36.155628 
z"/>
<path fill="#353E54" opacity="1.000000" stroke="none" 
	d="
M138.913010,136.226959 
	C139.103500,136.200668 139.293991,136.174362 139.761688,136.068268 
	C140.850525,138.588242 140.377228,140.007660 137.169464,139.860672 
	C132.746338,139.657974 128.298065,139.962906 123.880646,139.705643 
	C122.715111,139.637772 121.623375,138.302673 120.637131,137.245544 
	C125.894417,136.972305 131.012329,137.002991 136.866501,137.004349 
	C138.039520,136.725662 138.476257,136.476303 138.913010,136.226959 
z"/>
<path fill="#E79A84" opacity="1.000000" stroke="none" 
	d="
M68.285103,77.636429 
	C73.780525,82.572426 67.406487,83.839485 65.479630,86.568047 
	C65.479630,82.961678 65.479630,79.355316 65.479630,75.176720 
	C66.501854,76.034103 67.287109,76.692719 68.285103,77.636429 
z"/>
<path fill="#353E54" opacity="1.000000" stroke="none" 
	d="
M140.177399,19.731289 
	C139.827774,19.990547 139.604721,19.970566 138.888428,20.156372 
	C138.520645,20.889383 138.646118,21.416605 138.771591,21.943825 
	C138.785904,22.375160 138.800217,22.806496 138.558136,23.456793 
	C137.868500,23.449236 137.435272,23.222719 137.002045,22.996204 
	C135.163849,23.971800 133.325638,24.947393 131.092529,25.913757 
	C133.577835,22.461653 136.458023,19.018780 139.747665,15.086476 
	C139.981781,16.923819 140.142868,18.187931 140.177399,19.731289 
z"/>
<path fill="#5A838E" opacity="1.000000" stroke="none" 
	d="
M66.730301,99.987625 
	C67.207062,100.603500 67.913353,101.299339 67.917816,101.999649 
	C67.987579,112.935295 67.966675,123.871513 66.842331,134.813507 
	C66.842331,123.661827 66.842331,112.510147 66.726196,100.840530 
	C66.610069,100.322601 66.633347,100.069656 66.730301,99.987625 
z"/>
<path fill="#6C8E98" opacity="1.000000" stroke="none" 
	d="
M68.222183,139.637238 
	C72.786354,139.249695 77.739166,139.004379 82.935303,139.145477 
	C78.322693,139.614410 73.466759,139.696930 68.222183,139.637238 
z"/>
<path fill="#D43623" opacity="1.000000" stroke="none" 
	d="
M26.001602,37.003513 
	C26.026838,36.120716 26.052074,35.237915 26.117170,33.913048 
	C26.927538,34.161003 27.698046,34.851028 28.494087,35.848343 
	C28.465416,36.313515 28.411209,36.471405 27.859131,36.821861 
	C26.908037,37.010792 26.454821,37.007153 26.001602,37.003513 
z"/>
<path fill="#D43623" opacity="1.000000" stroke="none" 
	d="
M27.902983,132.009277 
	C28.107550,132.016144 28.312117,132.023010 28.823761,132.036453 
	C28.677483,132.727661 28.224125,133.412277 27.419485,134.144989 
	C27.046667,133.705307 27.025131,133.217545 27.226303,132.362152 
	C27.449009,131.994537 27.902983,132.009277 27.902983,132.009277 
z"/>
<path fill="#DD7B6D" opacity="1.000000" stroke="none" 
	d="
M11.331241,16.265736 
	C11.210967,16.680523 11.066685,16.826656 10.627375,17.060818 
	C10.346573,16.454964 10.360800,15.761081 10.375027,15.067198 
	C10.685761,15.377158 10.996496,15.687119 11.331241,16.265736 
z"/>
<path fill="#C27961" opacity="1.000000" stroke="none" 
	d="
M40.585384,129.901733 
	C40.646755,130.649551 40.411633,131.590683 39.778629,132.528336 
	C39.683464,131.714905 39.986179,130.904984 40.585384,129.901733 
z"/>
<path fill="#C27961" opacity="1.000000" stroke="none" 
	d="
M39.124352,132.316437 
	C39.087845,132.847809 38.754284,133.324982 38.065739,133.714661 
	C38.082935,133.172180 38.455116,132.717209 39.124352,132.316437 
z"/>
<path fill="#D64D2E" opacity="1.000000" stroke="none" 
	d="
M27.919262,131.539948 
	C27.902983,132.009277 27.449009,131.994537 27.221848,131.996048 
	C26.663483,130.102615 26.047617,128.208282 26.043680,126.312660 
	C25.982494,96.855217 26.000549,67.397606 26.000946,37.471771 
	C26.454821,37.007153 26.908037,37.010792 27.701801,37.016663 
	C28.006742,68.369461 27.971142,99.720032 27.919262,131.539948 
z"/>
<path fill="#1F4453" opacity="1.000000" stroke="none" 
	d="
M137.001740,23.465233 
	C137.435272,23.222719 137.868500,23.449236 138.517334,23.778240 
	C138.802551,46.184525 138.888336,68.488289 138.936081,90.792145 
	C138.967789,105.608551 138.945145,120.425072 138.929916,135.734253 
	C138.476257,136.476303 138.039520,136.725662 137.338043,136.978058 
	C137.048782,136.539795 137.024261,136.098526 136.994629,135.325409 
	C136.993469,97.973816 136.997437,60.954037 137.001740,23.465233 
z"/>
<path fill="#1F4453" opacity="1.000000" stroke="none" 
	d="
M138.830719,21.626102 
	C138.646118,21.416605 138.520645,20.889383 138.555283,20.199318 
	C138.773544,20.460443 138.831696,20.884413 138.830719,21.626102 
z"/>
</svg>